<svg xmlns="http://www.w3.org/2000/svg" viewBox="55 85 580 310" role="img" aria-label="HA logo">
  <!-- Left serif (H) -->
  <polygon points="63,217 228,95 152,215 152,217" fill="#ff0000"/>
  <polygon points="63,217 152,217 152,243 63,243" fill="#000"/>
  <!-- H left leg: black side + red face -->
  <polygon points="275,95 300,95 160,383 122,383" fill="#000"/>
  <polygon points="228,95 275,95 122,383 73,383" fill="#ff0000"/>
  <!-- H crossbar: black underside + red face -->
  <polygon points="190,245 385,245 385,272 170,272" fill="#000"/>
  <polygon points="205,222 405,222 405,245 190,245" fill="#ff0000"/>
  <!-- A left leg: black side + red face -->
  <polygon points="510,95 485,95 360,383 383,383" fill="#000"/>
  <polygon points="462,95 510,95 383,383 320,383" fill="#ff0000"/>
  <!-- A right leg: black + thin red strip -->
  <polygon points="510,97 567,380 525,380 487,200" fill="#000"/>
  <polygon points="478,195 495,200 522,380 505,380" fill="#ff0000"/>
  <!-- A crossbar -->
  <polygon points="440,282 505,282 492,318 425,318" fill="#ff0000"/>
  <!-- Right serif (A) -->
  <polygon points="510,97 625,222 562,222 532,195" fill="#ff0000"/>
  <polygon points="562,222 627,222 627,246 562,246" fill="#000"/>
</svg>
